<?xml version="1.0" standalone="no"?>
<!DOCTYPE svg PUBLIC "-//W3C//DTD SVG 20010904//EN"
 "http://www.w3.org/TR/2001/REC-SVG-20010904/DTD/svg10.dtd">
<svg version="1.0" xmlns="http://www.w3.org/2000/svg"
 width="1080.000000pt" height="1068.000000pt" viewBox="0 0 1080.000000 1068.000000"
 preserveAspectRatio="xMidYMid meet">

<g transform="translate(0.000000,1068.000000) scale(0.100000,-0.100000)"
fill="#000000" stroke="none">
<path d="M4995 10469 c-105 -10 -229 -26 -300 -39 -463 -88 -551 -108 -705
-162 -47 -16 -114 -38 -150 -48 -89 -25 -234 -81 -238 -91 -2 -5 -8 -9 -13 -9
-31 0 -352 -141 -364 -159 -2 -5 -16 -12 -30 -15 -35 -9 -122 -50 -170 -81
-22 -14 -52 -30 -67 -36 -16 -6 -28 -15 -28 -19 0 -4 -10 -10 -22 -14 -13 -3
-66 -34 -119 -68 -52 -35 -109 -70 -124 -78 -16 -8 -54 -32 -85 -53 -30 -21
-75 -51 -100 -67 -25 -16 -54 -38 -65 -48 -11 -10 -52 -40 -91 -65 -39 -26
-77 -54 -84 -62 -7 -8 -17 -15 -22 -15 -11 0 -28 -14 -88 -72 -26 -27 -51 -48
-55 -48 -4 0 -14 -9 -23 -20 -10 -10 -24 -20 -32 -22 -8 -2 -21 -11 -28 -20
-7 -10 -19 -18 -27 -18 -8 0 -24 -13 -37 -30 -12 -16 -27 -30 -33 -30 -15 0
-44 -32 -42 -44 1 -6 -13 -14 -31 -18 -17 -5 -32 -13 -32 -18 0 -5 -55 -64
-122 -132 -68 -68 -139 -143 -160 -168 -20 -25 -46 -56 -58 -70 -76 -89 -203
-251 -227 -290 -12 -20 -30 -45 -40 -57 -26 -32 -128 -191 -206 -323 -85 -146
-307 -591 -307 -617 0 -5 -18 -52 -40 -106 -93 -226 -215 -637 -251 -847 -65
-370 -83 -568 -83 -915 0 -323 12 -486 50 -715 14 -85 30 -177 34 -205 27
-156 49 -245 125 -500 44 -149 131 -387 192 -525 31 -70 170 -350 199 -400 14
-25 47 -83 74 -130 45 -78 128 -211 147 -235 5 -5 30 -44 57 -85 27 -41 66
-98 88 -127 l40 -52 36 18 c87 45 141 54 320 57 162 2 173 1 183 -17 5 -11 9
-37 7 -57 l-3 -37 -50 2 c-27 2 -101 5 -163 9 -195 11 -298 -30 -441 -175
-174 -177 -199 -303 -104 -511 22 -47 111 -158 165 -205 42 -36 138 -87 189
-100 l26 -6 -14 -57 c-7 -31 -18 -73 -23 -92 -15 -57 -30 -182 -28 -230 1 -25
0 -70 -1 -100 -4 -62 13 -156 34 -197 8 -16 15 -38 15 -50 0 -13 4 -23 8 -23
5 0 17 -18 27 -40 10 -22 22 -40 27 -40 4 0 8 -7 8 -15 0 -8 4 -14 9 -13 5 2
25 -13 43 -33 32 -35 37 -56 15 -70 -11 -7 0 -49 13 -49 5 0 8 12 7 26 -1 15
4 29 11 31 6 3 12 -3 12 -11 0 -9 11 -22 25 -28 24 -11 24 -12 9 -30 -15 -16
-15 -18 -1 -18 8 0 18 6 21 13 3 6 3 0 0 -15 -6 -26 20 -77 39 -78 5 0 15 -6
23 -14 8 -8 23 -12 36 -9 16 5 20 3 16 -8 -8 -21 18 -53 37 -45 9 3 14 2 11
-3 -3 -4 12 -16 34 -26 22 -10 40 -22 40 -27 0 -14 80 -10 80 5 1 6 10 1 21
-12 19 -23 26 -24 147 -26 70 -1 138 -5 150 -9 13 -5 22 -3 22 3 0 13 57 15
62 3 2 -5 26 -12 55 -15 38 -4 55 -2 63 9 15 17 120 20 120 3 0 -8 22 -9 76
-4 56 5 79 4 84 -5 6 -9 28 -11 84 -5 42 3 76 10 76 14 0 12 314 11 321 -1 10
-15 319 -25 319 -9 0 17 62 13 101 -6 25 -12 55 -16 109 -15 81 3 183 -12 188
-28 5 -14 80 -12 84 2 4 10 13 10 45 0 22 -7 70 -12 106 -12 36 0 92 -7 124
-15 32 -9 101 -18 154 -20 53 -3 126 -9 163 -14 38 -5 89 -7 115 -4 25 3 80
-1 121 -7 106 -17 123 -18 520 -18 404 0 410 0 429 12 7 5 41 10 75 12 33 2
81 7 106 10 66 10 84 11 200 19 58 4 110 11 115 16 6 4 72 9 148 11 75 2 137
7 137 11 0 5 19 8 43 6 23 -1 62 1 87 5 113 16 140 18 210 20 172 5 327 18
355 30 22 10 55 11 125 5 52 -4 120 -6 151 -2 43 4 62 1 82 -12 20 -13 30 -14
46 -6 29 16 101 14 101 -3 0 -16 231 -31 333 -20 42 4 67 3 67 -3 0 -6 63 -12
156 -15 108 -4 159 -9 164 -18 6 -9 27 -10 80 -5 56 6 74 4 81 -6 6 -10 9 -11
9 -1 0 16 57 16 63 0 3 -7 6 -1 6 15 1 25 4 27 41 27 34 0 40 -3 40 -21 0 -21
3 -22 61 -15 49 5 65 11 81 31 15 19 29 25 59 25 21 0 39 -4 39 -10 0 -6 33
-10 80 -10 64 0 80 -3 80 -15 0 -11 -11 -15 -40 -15 -22 0 -40 -4 -40 -10 0
-5 5 -10 10 -10 13 0 13 -37 1 -42 -14 -5 0 -58 15 -58 8 0 14 9 14 20 0 11 7
20 15 20 8 0 15 -9 15 -20 0 -19 7 -20 140 -20 133 0 140 1 140 20 0 11 5 20
10 20 6 0 10 -9 10 -20 0 -20 7 -20 615 -20 l615 0 0 540 0 540 -40 0 -40 0 0
-40 c0 -22 5 -40 10 -40 6 0 10 -18 10 -40 0 -22 -4 -40 -10 -40 -5 0 -10 18
-10 40 l0 40 -40 0 -40 0 0 -80 0 -80 -80 0 -80 0 0 -40 0 -40 -40 0 -40 0 0
-40 0 -40 40 0 c22 0 40 -4 40 -10 0 -5 -18 -10 -40 -10 -38 0 -40 -2 -40 -30
0 -16 -4 -30 -10 -30 -5 0 -10 18 -10 40 0 38 -2 40 -30 40 -28 0 -30 -2 -30
-40 l0 -40 -120 0 -120 0 0 -34 c0 -34 -1 -35 -42 -39 l-43 -4 43 -1 42 -2 0
-40 0 -40 -40 0 c-29 0 -40 -4 -40 -15 0 -11 -11 -15 -40 -15 -29 0 -40 4 -40
15 0 11 -11 15 -40 15 -22 0 -40 -4 -40 -10 0 -5 -18 -10 -40 -10 -22 0 -40 5
-40 10 0 6 18 10 40 10 l40 0 0 80 0 80 -34 0 c-34 0 -35 1 -39 42 -2 24 -4 7
-5 -38 l-2 -82 -42 -3 -43 -4 3 73 c2 43 0 72 -6 72 -6 0 -22 -13 -35 -30 -18
-21 -35 -30 -56 -30 l-31 0 0 80 c0 67 -3 80 -16 80 -14 0 -16 9 -10 69 4 38
4 80 0 95 -5 23 -11 26 -46 26 l-39 0 7 63 c4 34 11 63 15 65 5 2 9 21 9 43 0
39 0 39 -40 39 l-40 0 0 80 c0 44 4 80 9 80 5 0 12 21 15 48 10 74 9 94 -4
102 -8 5 -5 9 9 13 12 3 21 1 21 -4 0 -5 9 -9 20 -9 11 0 20 5 20 10 0 6 -7
10 -16 10 -23 0 -7 18 29 34 39 17 126 104 170 171 100 153 122 360 54 520
-41 97 -119 202 -179 240 -16 9 -28 21 -28 26 0 4 19 36 43 71 36 53 115 177
152 240 11 18 50 86 112 194 297 513 509 1207 584 1911 75 699 -7 1433 -240
2141 -169 515 -403 977 -714 1412 -49 69 -102 139 -116 155 -14 17 -42 51 -61
75 -184 232 -520 562 -760 746 -36 28 -94 73 -130 100 -336 257 -832 524
-1190 639 -30 10 -59 21 -65 25 -18 13 -67 22 -60 10 12 -19 -15 -13 -140 30
-33 12 -76 26 -95 31 -19 5 -51 16 -70 24 -45 17 -177 51 -260 65 -36 7 -76
16 -90 21 -14 5 -68 15 -120 23 -52 8 -121 20 -152 26 -32 5 -84 15 -115 20
-195 35 -786 51 -1028 29z m685 -224 c58 -9 173 -24 255 -35 151 -18 309 -50
355 -72 14 -6 29 -10 35 -9 5 2 7 -1 3 -5 -12 -11 -79 -14 -98 -4 -10 5 -37
12 -60 15 -23 3 -47 8 -53 12 -6 3 -47 7 -91 8 -45 2 -92 6 -106 9 -45 12
-480 17 -480 6 0 -6 -41 -10 -102 -11 -179 -1 -153 -16 37 -21 163 -5 194 -9
330 -42 171 -42 175 -43 310 -106 55 -26 112 -50 127 -53 14 -4 59 -27 100
-52 40 -24 100 -61 133 -81 33 -20 80 -55 106 -79 44 -41 117 -75 202 -95 23
-5 88 -29 143 -53 56 -25 119 -50 140 -57 71 -23 371 -177 452 -232 23 -16 57
-35 75 -43 17 -8 70 -41 117 -74 47 -34 109 -77 138 -97 30 -21 63 -50 75 -66
11 -15 26 -28 33 -28 7 0 24 -14 38 -30 14 -17 29 -32 33 -33 24 -5 42 -33 37
-54 -5 -18 -2 -23 13 -23 24 0 43 -19 43 -42 0 -10 10 -23 23 -28 12 -5 16 -9
9 -9 -9 -1 -8 -8 4 -26 9 -14 20 -25 24 -25 11 0 260 -250 260 -261 0 -5 4 -9
8 -9 5 0 46 -45 93 -101 46 -56 108 -129 136 -162 29 -34 61 -78 72 -98 11
-19 35 -54 54 -77 20 -23 45 -59 58 -79 12 -21 41 -67 65 -103 23 -36 54 -88
69 -115 14 -28 39 -72 56 -100 16 -27 41 -75 55 -105 14 -30 50 -104 80 -163
29 -60 59 -127 65 -150 13 -50 20 -68 47 -127 13 -29 18 -57 15 -77 -4 -24 -1
-34 11 -39 20 -8 20 -18 0 -38 -14 -14 -14 -19 -1 -45 8 -16 11 -35 7 -41 -4
-7 -1 -29 8 -49 13 -27 17 -67 17 -161 l-1 -125 -45 -111 c-26 -62 -63 -136
-83 -166 -20 -30 -36 -60 -36 -66 0 -10 58 -47 138 -88 54 -28 83 -54 135
-123 49 -66 67 -123 67 -213 0 -85 -25 -144 -83 -191 -62 -50 -205 -124 -257
-132 l-45 -7 39 22 c55 31 175 110 181 120 3 5 0 29 -7 55 -10 36 -10 50 0 63
41 58 62 114 62 166 0 73 -9 93 -66 148 -81 78 -103 94 -153 112 -48 17 -48
17 -140 -14 -82 -27 -131 -37 -131 -26 0 2 12 30 26 62 33 75 115 308 142 404
33 117 45 213 46 367 l1 142 -30 31 c-41 44 -93 76 -137 84 -49 9 -113 72
-129 128 -7 24 -19 52 -26 64 -14 22 -79 62 -87 54 -2 -3 5 -79 16 -170 32
-272 14 -602 -52 -930 -47 -234 -60 -306 -60 -329 0 -28 -34 -41 -105 -41 -42
0 -55 4 -59 18 -16 54 -67 330 -76 407 -19 172 -6 547 26 735 42 248 58 307
119 429 20 40 35 75 33 77 -2 2 -35 19 -72 39 -52 27 -79 35 -120 35 -135 0
-289 -98 -360 -230 -78 -145 -98 -180 -106 -185 -5 -3 -30 26 -56 65 -70 105
-72 102 -94 -90 -6 -52 -17 -122 -25 -155 -23 -107 -37 -196 -32 -201 6 -7 66
57 67 70 0 19 72 96 90 96 24 0 29 -21 40 -200 10 -158 29 -285 57 -375 47
-157 122 -363 164 -450 55 -116 53 -123 -33 -132 -62 -6 -97 11 -178 86 -24
22 -50 41 -57 41 -7 0 -19 -16 -28 -36 -14 -35 -15 -35 -59 -29 -28 5 -46 3
-50 -4 -4 -6 -18 -11 -32 -11 -14 0 -34 -5 -45 -11 -13 -7 -24 -7 -32 -1 -7 6
-64 9 -127 9 l-115 -2 2 -46 c2 -44 87 -344 103 -364 4 -5 14 -29 21 -53 15
-50 23 -55 159 -102 52 -17 102 -36 110 -41 31 -17 -35 -9 -129 17 -107 29
-126 27 -116 -14 7 -28 9 -33 70 -167 32 -70 114 -292 141 -380 7 -23 19 -33
48 -43 63 -20 373 -35 611 -28 294 8 456 32 670 98 129 40 174 63 266 137 64
50 80 70 99 116 34 85 12 169 -69 253 -20 20 -20 22 -4 22 10 0 44 -26 76 -58
80 -81 102 -144 87 -253 -15 -106 -33 -156 -72 -190 -41 -36 -56 -37 -29 -3
20 26 38 90 28 100 -3 3 -25 -10 -49 -28 -24 -18 -63 -41 -88 -52 -25 -10 -53
-22 -62 -27 -58 -30 -249 -89 -336 -105 -251 -44 -487 -66 -712 -65 -124 0
-245 4 -270 9 -25 6 -74 13 -110 17 l-66 6 -18 -41 c-27 -62 -142 -189 -190
-211 -22 -10 -42 -17 -43 -15 -2 2 19 26 47 54 65 66 108 160 85 184 -3 3 -36
-23 -72 -58 -72 -68 -88 -77 -77 -41 6 21 6 21 -17 -4 -38 -40 -77 -53 -105
-34 -30 19 -30 32 -1 38 12 2 -9 5 -48 6 -38 2 -80 4 -92 7 -12 2 -25 -1 -28
-6 -9 -14 -52 -12 -58 3 -4 9 -7 9 -18 -1 -7 -6 -23 -12 -36 -12 -13 0 -23 -6
-24 -12 0 -10 -2 -10 -6 0 -2 6 -18 12 -33 12 -32 0 -62 25 -100 82 -24 36
-40 48 -40 30 0 -5 3 -12 7 -16 4 -4 9 -19 10 -34 4 -26 40 -131 69 -200 8
-18 14 -38 14 -45 0 -7 6 -23 13 -37 7 -14 22 -49 32 -78 10 -28 23 -52 27
-52 4 0 8 -7 8 -15 0 -8 -4 -15 -10 -15 -5 0 -10 6 -10 14 0 8 -7 17 -16 20
-9 3 -14 12 -11 19 3 7 -4 24 -14 38 -10 13 -19 30 -19 37 0 6 -5 12 -11 12
-7 0 -18 8 -25 18 -8 10 -13 12 -14 5 0 -18 -20 -16 -20 1 0 10 -21 15 -81 18
-49 3 -84 10 -88 17 -9 14 -77 6 -98 -12 -18 -13 -16 -27 2 -27 8 0 15 6 15
14 0 9 7 12 20 9 24 -6 27 -23 4 -23 -24 0 -43 -25 -41 -55 1 -15 -3 -30 -10
-32 -6 -2 -22 29 -38 79 -15 46 -35 101 -45 123 -78 169 -109 233 -117 238 -4
3 -9 -26 -10 -64 -1 -53 -6 -75 -22 -95 -12 -15 -21 -33 -21 -41 0 -10 -6 -12
-20 -8 -14 4 -20 2 -18 -7 2 -9 -11 -14 -39 -16 -42 -3 -43 -2 -62 40 -11 24
-34 81 -52 128 -18 47 -43 106 -55 132 -37 73 -146 198 -197 225 -25 13 -31
13 -53 -2 -13 -8 -24 -20 -24 -26 0 -17 55 -92 87 -119 55 -47 103 -162 103
-250 0 -90 -73 -220 -153 -273 -114 -76 -168 -97 -250 -97 -90 0 -112 15 -178
114 -26 39 -52 67 -72 75 -18 8 -46 24 -63 37 -33 25 -94 137 -94 176 0 38
-27 67 -70 74 -48 8 -85 46 -94 97 -11 63 -37 45 -66 -45 -43 -132 -111 -175
-260 -162 -106 9 -107 10 -109 93 -2 107 27 162 134 252 71 59 84 75 79 93 -9
30 -33 46 -71 46 -30 0 -90 -23 -103 -39 -3 -3 -26 -22 -51 -41 -75 -56 -182
-218 -222 -334 -20 -57 -38 -65 -81 -35 -35 24 -43 44 -38 102 4 38 -23 8 -64
-71 -23 -45 -47 -88 -53 -96 -13 -15 -71 -19 -71 -4 0 4 -18 8 -40 8 -27 0
-40 -4 -40 -14 0 -17 -98 -28 -180 -19 -50 5 -61 3 -66 -11 -3 -9 -11 -13 -17
-9 -5 3 -17 -3 -25 -13 -23 -31 -6 116 25 204 13 41 22 76 20 79 -6 5 -9 0
-75 -112 -23 -38 -58 -85 -77 -104 -35 -33 -40 -34 -135 -39 -135 -6 -270 5
-270 24 0 8 -5 14 -10 14 -7 0 -7 -6 0 -19 14 -28 -3 -35 -40 -16 -16 8 -30
13 -30 9 0 -3 -19 11 -42 30 -23 20 -45 36 -50 36 -4 0 -8 9 -8 20 0 11 -5 20
-10 20 -6 0 -24 15 -40 33 -22 24 -29 28 -30 15 0 -10 5 -18 10 -18 6 0 10 -7
10 -15 0 -8 5 -15 10 -15 6 0 10 -6 10 -13 0 -18 23 -67 32 -67 4 0 14 -12 22
-27 8 -16 24 -39 35 -52 23 -26 27 -41 11 -41 -5 0 -10 4 -10 8 0 5 -36 48
-80 97 -44 49 -80 92 -80 96 0 3 -13 23 -29 43 -39 49 -49 150 -26 254 21 90
15 116 -27 132 l-33 11 64 32 c64 32 64 33 117 136 29 57 57 107 62 110 12 9
52 77 87 150 18 36 48 86 69 109 61 73 57 74 -119 29 -391 -102 -898 -97
-1393 13 -146 33 -182 46 -259 92 -80 49 -96 118 -47 207 24 42 24 43 5 38
-12 -3 -21 -1 -21 4 0 5 10 9 22 9 20 0 21 1 3 20 -10 11 -22 17 -27 14 -4 -3
-7 -2 -6 3 2 4 -1 9 -6 10 -5 1 -12 7 -17 14 -6 10 -13 7 -28 -12 l-20 -24 -1
23 c0 26 -17 30 -23 5 -2 -11 -7 -3 -11 19 -9 41 4 175 35 368 25 150 30 169
137 525 26 86 56 168 92 250 5 11 14 38 21 60 6 22 15 45 19 50 4 6 17 36 28
67 24 64 42 99 57 110 6 5 5 8 -2 8 -7 0 -13 5 -13 11 0 6 6 9 14 6 16 -7 26
13 26 52 0 15 9 35 21 45 16 13 20 25 16 49 -5 36 7 67 27 67 9 0 12 8 9 23
-4 22 -4 22 12 2 16 -19 17 -18 10 22 -5 32 -3 46 10 60 9 10 36 51 58 91 59
102 113 181 182 269 33 41 72 94 87 117 29 43 100 123 203 230 33 34 74 77 92
96 74 82 290 278 350 318 21 14 45 33 53 41 21 23 128 102 170 127 19 11 57
37 84 58 27 20 70 48 95 62 25 14 75 43 111 64 92 56 408 213 515 256 105 42
260 95 465 159 143 45 194 71 308 156 42 31 273 149 322 164 14 4 39 13 55 21
36 15 186 60 235 69 19 4 53 12 75 18 l40 11 -35 6 c-19 3 -55 2 -80 -2 -25
-4 -72 -7 -106 -7 -33 -1 -85 -5 -115 -11 -30 -5 -90 -12 -134 -15 -44 -3
-123 -12 -175 -21 -104 -17 -258 -41 -305 -49 -85 -12 -146 -28 -365 -91 -173
-50 -222 -66 -320 -109 -47 -20 -107 -43 -134 -51 -27 -9 -54 -20 -60 -25 -13
-11 -208 -109 -217 -109 -4 0 -48 -25 -99 -55 -50 -31 -117 -69 -148 -84 -32
-16 -66 -37 -77 -48 -18 -16 -96 -71 -209 -145 -22 -16 -50 -36 -61 -46 -11
-10 -42 -33 -69 -52 -27 -18 -58 -42 -68 -52 -10 -10 -40 -35 -66 -54 -105
-80 -415 -381 -516 -503 -20 -24 -49 -56 -64 -71 -86 -86 -403 -524 -461 -638
-11 -22 -34 -60 -49 -84 -41 -61 -162 -296 -207 -403 -21 -49 -49 -115 -63
-145 -63 -139 -180 -500 -211 -650 -6 -30 -25 -122 -42 -205 -46 -222 -58
-287 -62 -320 -3 -18 -5 -10 -5 20 -2 44 4 104 23 250 6 46 25 130 61 270 14
55 31 132 39 170 8 39 29 108 45 155 17 47 37 105 45 130 39 124 81 235 127
330 28 58 56 122 64 143 18 51 192 377 214 402 10 11 32 47 48 81 17 34 42 74
55 90 13 16 46 63 72 104 27 41 67 98 90 125 23 28 53 68 67 90 14 22 38 54
54 70 16 17 42 48 59 70 55 76 263 294 407 427 71 66 230 203 263 226 6 4 30
23 55 43 57 45 227 165 288 203 26 17 83 53 127 81 44 29 103 63 130 77 28 14
86 45 130 69 44 24 100 53 125 63 25 11 95 43 155 72 61 28 130 57 155 63 25
7 54 16 65 21 106 48 232 92 333 116 35 8 80 21 100 29 37 14 266 72 372 94
114 24 445 63 630 75 127 8 519 -4 620 -19z m2234 -824 c-2 -3 -12 3 -22 13
-16 17 -16 18 5 5 12 -7 20 -15 17 -18z m141 -91 c3 -5 2 -10 -4 -10 -5 0 -13
5 -16 10 -3 6 -2 10 4 10 5 0 13 -4 16 -10z m75 -65 c11 -13 10 -14 -4 -9 -9
3 -16 10 -16 15 0 13 6 11 20 -6z m86 -56 c19 -11 34 -25 34 -30 0 -5 8 -12
18 -16 20 -7 99 -71 157 -125 22 -21 43 -38 47 -38 5 0 8 -7 8 -15 0 -8 5 -15
10 -15 6 0 69 -60 141 -132 175 -178 198 -202 260 -278 30 -36 59 -72 66 -80
72 -86 209 -272 220 -298 7 -18 26 -46 41 -62 16 -16 41 -55 57 -87 15 -32 52
-95 81 -140 30 -46 62 -104 72 -130 10 -27 31 -66 45 -87 15 -21 27 -44 27
-50 0 -6 9 -22 20 -36 11 -14 20 -31 20 -37 0 -7 21 -59 46 -115 26 -57 47
-109 48 -116 1 -7 8 -18 14 -24 7 -7 12 -19 12 -27 0 -9 9 -35 20 -59 10 -23
22 -59 25 -80 5 -33 3 -32 -14 14 -10 29 -35 85 -54 125 -19 41 -44 97 -56
124 -12 28 -27 59 -33 70 -7 11 -18 34 -27 50 -8 17 -25 46 -38 65 -13 19 -23
42 -23 50 0 17 -45 107 -65 130 -8 8 -30 47 -51 85 -20 39 -43 77 -50 86 -8 8
-14 19 -14 23 0 5 -14 24 -30 43 -17 18 -42 57 -56 86 -14 29 -38 66 -53 82
-15 17 -35 41 -44 55 -116 170 -257 347 -371 464 -22 23 -56 61 -75 86 -19 25
-46 54 -60 65 -14 11 -39 35 -56 54 -16 18 -43 45 -60 60 -16 14 -59 54 -95
87 -36 34 -94 88 -130 119 -36 32 -69 62 -74 66 -18 17 7 9 40 -12z m-117
-1765 c22 -16 23 -22 18 -88 -11 -148 -97 -320 -145 -289 -14 8 -17 27 -17
104 0 122 19 207 57 253 33 40 52 44 87 20z m1638 -406 c-3 -8 -6 -5 -6 6 -1
11 2 17 5 13 3 -3 4 -12 1 -19z m33 -69 c0 -4 -4 -11 -10 -14 -5 -3 -10 0 -10
9 0 8 -3 23 -6 33 -5 16 -4 16 10 -1 9 -11 16 -23 16 -27z m50 -176 c0 -32 -5
-28 -14 10 -4 19 -3 26 4 22 5 -3 10 -18 10 -32z m-9174 -830 c-11 -11 -17 4
-9 23 7 18 8 18 11 1 2 -10 1 -21 -2 -24z m-9 -135 c-2 -18 -4 -6 -4 27 0 33
2 48 4 33 2 -15 2 -42 0 -60z m7427 -43 c3 -8 1 -15 -5 -15 -5 0 -15 -11 -21
-25 -13 -29 -23 -32 -32 -8 -4 10 2 25 15 40 26 27 35 29 43 8z m186 0 c7 -9
10 -19 6 -22 -8 -9 -38 9 -44 25 -5 17 23 15 38 -3z m-288 -92 c19 -39 71 -51
245 -57 82 -3 163 -8 181 -12 53 -11 209 15 285 48 38 16 71 27 74 25 8 -8 -8
-91 -20 -107 -20 -26 -128 -82 -197 -101 -170 -49 -190 -52 -330 -46 -141 5
-207 23 -240 62 -23 27 -40 86 -40 137 0 79 18 101 42 51z m488 17 c0 -5 -4
-10 -10 -10 -5 0 -10 5 -10 10 0 6 5 10 10 10 6 0 10 -4 10 -10z m525 -350
c-3 -5 -11 -10 -16 -10 -6 0 -7 5 -4 10 3 6 11 10 16 10 6 0 7 -4 4 -10z m-40
-10 c-3 -5 -12 -10 -18 -10 -7 0 -6 4 3 10 19 12 23 12 15 0z m-6240 -40 c3
-5 15 -10 26 -10 11 0 17 -4 14 -10 -3 -5 -14 -10 -23 -10 -10 0 -35 -9 -57
-20 -60 -31 -70 -25 -33 20 32 39 60 50 73 30z m-855 -59 c0 -5 -9 -11 -19
-14 -13 -3 -24 -20 -31 -48 -11 -41 -11 -44 15 -65 22 -17 25 -23 13 -33 -27
-23 -87 -59 -109 -66 -13 -4 -37 -18 -52 -31 -16 -13 -33 -24 -39 -24 -6 0
-26 16 -44 36 -19 19 -38 34 -43 32 -17 -6 -118 -106 -126 -125 -20 -46 9 -75
124 -120 172 -68 395 -107 671 -119 96 -4 229 -10 295 -13 116 -6 119 -7 80
-19 -125 -41 -456 -38 -735 8 -69 11 -152 25 -185 30 -121 19 -310 98 -362
152 -50 52 -39 175 23 244 41 46 149 115 203 130 31 9 81 24 111 34 57 19 210
27 210 11z m305 -141 c47 -27 155 -36 192 -16 31 16 123 11 123 -7 0 -15 -68
-76 -88 -77 -9 -1 -91 -3 -182 -4 -172 -3 -229 4 -250 29 -11 13 -7 21 24 49
52 49 122 59 181 26z m601 9 c3 -6 -8 -24 -25 -39 -17 -16 -31 -33 -31 -37 0
-27 -116 -56 -189 -46 -35 5 -41 9 -41 29 0 27 12 34 111 68 105 36 163 44
175 25z m4454 -603 c0 -11 -19 -15 -25 -6 -3 5 1 10 9 10 9 0 16 -2 16 -4z
m180 -35 c0 -6 -4 -13 -10 -16 -5 -3 -10 1 -10 9 0 9 5 16 10 16 6 0 10 -4 10
-9z m-4960 -305 c67 -33 106 -69 115 -104 4 -15 12 -30 18 -34 6 -4 9 -9 6
-12 -3 -3 -22 11 -43 30 -45 43 -122 79 -198 93 -89 16 -246 -13 -349 -65
-107 -54 -265 -223 -330 -355 -58 -116 -80 -255 -79 -503 0 -39 -15 -3 -32 77
-33 158 -19 286 49 447 72 172 189 296 363 385 115 58 186 75 315 72 98 -2
116 -6 165 -31z m6135 15 c75 -19 185 -70 250 -114 21 -15 72 -59 113 -99 166
-163 246 -400 213 -627 -14 -95 -35 -156 -44 -125 -3 10 -5 71 -5 134 -1 190
-54 377 -132 466 -16 19 -36 47 -44 63 -14 26 -125 125 -204 180 -44 31 -156
68 -244 82 -117 18 -252 -24 -318 -99 l-40 -45 0 29 c0 16 7 39 15 52 21 30
98 81 154 103 62 24 194 24 286 0z m-3675 -446 c0 -28 10 -26 -230 -50 -91 -9
-212 -23 -270 -30 -250 -33 -347 -47 -380 -54 -37 -9 -119 -22 -255 -42 -97
-13 -232 -38 -420 -78 -146 -30 -235 -44 -235 -36 0 41 890 226 1205 250 44 4
103 11 130 16 28 5 100 14 160 20 215 22 260 26 278 28 12 1 17 -6 17 -24z
m1179 -14 c38 0 111 -6 162 -15 52 -8 153 -20 224 -27 72 -6 133 -13 137 -16
4 -2 40 -8 80 -13 141 -17 546 -97 678 -134 30 -8 88 -24 129 -34 40 -11 78
-25 84 -31 6 -6 20 -11 31 -11 10 0 17 -3 14 -6 -6 -5 -163 20 -293 47 -27 6
-111 23 -185 38 -74 16 -173 34 -220 40 -47 7 -143 21 -215 32 -255 40 -472
70 -615 84 -165 17 -200 23 -200 34 0 14 64 28 93 20 16 -5 59 -8 96 -8z
m-3543 -46 c-9 -14 -21 -25 -26 -25 -6 0 -10 -6 -10 -14 0 -24 -98 -66 -152
-66 -26 0 -48 5 -48 10 0 6 11 10 24 10 26 0 88 19 96 30 3 4 27 19 53 35 27
15 54 36 60 47 7 10 13 14 15 8 2 -6 -3 -22 -12 -35z m5694 -35 c0 -5 -12 -10
-27 -10 -22 0 -25 2 -13 10 20 13 40 13 40 0z m46 -25 c16 -8 37 -15 46 -15 9
0 20 -4 23 -10 4 -6 -7 -10 -27 -10 -34 0 -78 23 -78 41 0 12 3 12 36 -6z
m-3335 -92 c22 -79 83 -194 129 -243 19 -20 53 -57 75 -81 76 -84 181 -159
222 -159 52 0 247 139 344 245 65 71 93 124 130 245 l14 45 79 -1 c197 -3 624
-62 926 -128 63 -13 158 -32 210 -41 52 -8 178 -36 280 -62 102 -25 250 -60
330 -78 80 -18 190 -45 245 -59 211 -56 330 -76 456 -76 97 0 107 -2 126 -22
53 -58 89 -166 99 -295 8 -95 -2 -145 -50 -247 -19 -39 -41 -93 -50 -119 -9
-27 -23 -61 -31 -77 -20 -39 -19 -75 6 -151 20 -60 21 -77 14 -261 -8 -217 -3
-253 47 -371 41 -96 93 -261 107 -337 39 -213 43 -240 35 -240 -3 0 -20 6 -37
14 -127 54 -354 130 -492 163 -55 13 -203 48 -330 78 -126 30 -273 62 -325 70
-52 7 -165 27 -250 44 -520 100 -1010 134 -1312 91 -155 -22 -405 -133 -511
-227 -72 -64 -90 -63 -182 15 -57 48 -284 158 -385 187 -270 76 -876 49 -1430
-66 -80 -17 -174 -35 -210 -41 -82 -13 -220 -44 -425 -96 -88 -22 -193 -48
-234 -57 -41 -9 -99 -25 -130 -35 -163 -52 -349 -109 -373 -114 -27 -6 -28 -5
-28 32 0 40 48 226 95 367 15 44 35 109 45 145 10 36 27 97 38 135 16 57 21
116 26 319 l7 250 -42 105 c-23 58 -57 140 -75 181 -47 105 -54 152 -38 260
16 105 85 264 119 273 11 3 76 11 145 17 157 14 233 29 440 86 90 25 228 61
305 80 77 18 214 51 305 73 190 46 620 129 860 165 198 31 522 64 604 62 l59
-1 18 -62z m3839 -92 c0 -5 -13 -14 -30 -21 -16 -7 -30 -15 -30 -19 0 -10 -81
-32 -140 -38 -78 -8 -54 9 50 36 47 12 92 29 100 37 16 15 50 19 50 5z m-6814
-42 c3 -6 15 -9 25 -6 10 3 42 -4 71 -15 28 -10 76 -23 107 -28 53 -9 52 -9
-24 -5 -88 4 -187 27 -193 44 -2 6 -9 8 -14 5 -7 -4 -8 -2 -4 4 9 15 23 15 32
1z m7239 -836 c17 -6 57 -19 90 -29 33 -9 67 -22 75 -29 8 -6 26 -16 40 -22
14 -6 45 -28 70 -49 133 -115 189 -228 178 -359 l-3 -40 -43 88 c-24 48 -48
87 -53 87 -5 0 -13 8 -16 18 -13 35 -146 161 -201 190 -126 66 -276 83 -436
48 -43 -10 -84 -15 -92 -12 -21 8 -18 82 4 104 17 17 36 19 188 17 93 -1 183
-7 199 -12z m135 -1122 c-44 -18 -75 -18 -64 0 3 5 8 8 12 5 4 -2 16 0 27 5
11 4 31 8 45 8 19 0 15 -4 -20 -18z m26 -20 c-4 -5 0 -12 6 -15 7 -3 4 -5 -6
-3 -24 3 -34 27 -11 27 9 0 14 -4 11 -9z m51 -53 c-3 -8 -6 -5 -6 6 -1 11 2
17 5 13 3 -3 4 -12 1 -19z m-41 -146 c-11 -10 -12 3 -7 53 l6 50 3 -49 c2 -26
1 -51 -2 -54z m-79 16 c-3 -8 -6 -5 -6 6 -1 11 2 17 5 13 3 -3 4 -12 1 -19z
m130 -290 c-3 -7 -5 -2 -5 12 0 14 2 19 5 13 2 -7 2 -19 0 -25z m113 -49 c0
-18 -2 -19 -15 -9 -8 7 -15 16 -15 21 0 5 7 9 15 9 9 0 15 -9 15 -21z m0 -240
c0 -18 -2 -19 -15 -9 -8 7 -15 16 -15 21 0 5 7 9 15 9 9 0 15 -9 15 -21z
m-7780 -199 c0 -5 -4 -10 -10 -10 -5 0 -10 5 -10 10 0 6 5 10 10 10 6 0 10 -4
10 -10z m7700 -270 c0 -5 -7 -7 -15 -4 -8 4 -15 8 -15 10 0 2 7 4 15 4 8 0 15
-4 15 -10z m463 3 c-13 -2 -33 -2 -45 0 -13 2 -3 4 22 4 25 0 35 -2 23 -4z
m-303 -48 c0 -22 -4 -25 -40 -25 -36 0 -40 3 -40 25 0 23 4 25 40 25 36 0 40
-2 40 -25z m-160 -15 c0 -17 -7 -20 -40 -20 -46 0 -52 14 -12 28 41 16 52 14
52 -8z m-160 -50 c0 -11 -4 -20 -10 -20 -5 0 -10 9 -10 20 0 11 5 20 10 20 6
0 10 -9 10 -20z m240 5 c0 -11 -11 -15 -40 -15 -29 0 -40 4 -40 15 0 11 11 15
40 15 29 0 40 -4 40 -15z m-97 -42 c-13 -2 -33 -2 -45 0 -13 2 -3 4 22 4 25 0
35 -2 23 -4z"/>
<path d="M4959 9628 c-1 -7 -1 -29 0 -49 2 -29 -2 -37 -24 -47 -14 -7 -30 -12
-36 -12 -16 0 -53 -42 -71 -82 -17 -37 -20 -38 -68 -38 -41 0 -50 -3 -50 -17
0 -15 2 -16 10 -3 7 12 16 12 51 3 37 -10 47 -9 78 8 34 18 111 26 124 13 10
-10 -19 -33 -67 -55 -25 -11 -48 -24 -51 -29 -16 -26 -147 1 -187 37 -11 9
-29 18 -41 20 -12 2 -39 17 -59 34 -32 25 -38 27 -38 12 0 -10 7 -31 15 -46 8
-15 17 -42 20 -60 l6 -32 -44 3 c-40 3 -46 1 -68 -28 -58 -76 -110 -122 -132
-117 -12 3 -44 8 -72 12 l-50 6 45 -40 c25 -23 48 -41 51 -41 13 0 19 -33 8
-46 -6 -7 -8 -21 -5 -31 3 -10 1 -36 -5 -58 -6 -22 -12 -52 -13 -67 -3 -30
-29 -60 -48 -56 -7 2 -12 -4 -10 -12 3 -10 -4 -8 -20 8 -14 12 -28 22 -32 22
-4 0 -16 10 -27 23 -10 12 -18 17 -19 10 0 -18 54 -94 90 -127 69 -61 218
-111 296 -99 18 3 34 1 37 -4 3 -5 -1 -68 -9 -139 -14 -123 -17 -134 -70 -241
-57 -115 -77 -138 -167 -194 -27 -17 -47 -35 -44 -42 11 -33 89 -46 160 -26
22 6 41 8 44 5 10 -10 43 -180 42 -221 0 -22 -6 -51 -14 -65 -9 -17 -12 -42
-8 -75 l6 -50 -40 43 c-47 50 -72 53 -107 11 -26 -30 -32 -69 -20 -116 l6 -23
28 20 c56 40 67 18 33 -60 -13 -30 -30 -61 -37 -70 -8 -8 -16 -26 -18 -39 -2
-14 -11 -25 -21 -27 -29 -4 -31 -10 -17 -58 16 -58 9 -76 -29 -76 -21 0 -35
-7 -47 -24 -10 -16 -21 -23 -31 -19 -13 5 -15 19 -10 80 3 41 1 73 -4 73 -5 0
-21 -18 -36 -41 -38 -58 -43 -139 -11 -194 19 -32 33 -43 71 -54 52 -16 54
-20 32 -81 -33 -93 -11 -224 55 -331 34 -55 39 -104 15 -149 -13 -26 -13 -36
2 -101 14 -56 15 -73 5 -77 -15 -5 -15 -56 -1 -136 10 -56 9 -66 -15 -129 -14
-37 -38 -84 -54 -105 -16 -20 -36 -55 -45 -77 -14 -37 -15 -38 -20 -15 -3 14
-8 51 -12 84 -10 104 -22 93 -28 -26 -7 -125 -35 -253 -63 -292 -23 -31 -29
-32 -56 -6 -12 11 -30 20 -41 20 -16 0 -18 -5 -12 -38 5 -31 2 -41 -17 -58
-41 -36 -116 -84 -130 -84 -8 0 -19 -5 -24 -10 -8 -8 -33 -6 -85 5 -41 8 -83
15 -94 15 -19 0 -19 0 0 -14 11 -7 38 -19 60 -27 53 -17 105 -56 105 -77 0 -9
-18 -35 -39 -58 -37 -39 -42 -41 -116 -47 -42 -4 -82 -10 -87 -14 -6 -3 22
-17 63 -31 112 -38 148 -66 92 -75 -18 -2 -11 -5 19 -6 25 0 67 -10 92 -20
l45 -20 48 58 c50 61 134 121 170 121 31 0 39 17 51 115 32 257 42 303 101
450 26 66 118 218 151 250 17 17 42 40 54 53 30 29 36 28 36 -8 0 -25 4 -30
35 -36 20 -3 42 -16 50 -27 17 -24 19 -83 6 -140 -16 -69 -4 -86 81 -116 41
-15 93 -41 114 -58 84 -67 171 -80 278 -42 34 12 66 25 71 30 20 15 160 39
230 39 117 -1 151 -12 205 -65 58 -57 155 -244 175 -336 4 -19 12 -40 18 -47
6 -8 14 -35 18 -60 7 -45 28 -114 53 -174 17 -43 61 -56 145 -44 132 20 163
15 213 -32 15 -14 30 -23 33 -20 11 10 -7 37 -42 63 -33 26 -34 28 -17 46 9
10 23 19 31 19 7 0 21 4 31 9 47 25 154 55 210 58 l63 5 67 -67 c51 -50 72
-65 87 -60 11 3 49 13 85 22 64 17 65 17 33 26 -27 8 -32 14 -27 32 6 25 -15
73 -41 95 -20 16 -69 110 -58 110 5 0 3 4 -2 8 -6 4 -19 34 -29 67 -10 33 -26
78 -37 100 -10 22 -21 60 -24 85 -4 25 -11 64 -17 88 -9 34 -14 41 -29 37 -9
-3 -20 -2 -23 3 -7 12 -63 221 -78 292 -11 52 -12 53 -20 25 -4 -16 -3 -81 2
-145 13 -154 12 -279 -1 -337 -26 -109 -74 -247 -98 -277 l-24 -31 -29 53
c-76 145 -195 311 -302 424 -53 55 -71 79 -63 87 6 6 18 11 26 11 37 0 92 22
102 41 17 33 -23 148 -71 204 -56 65 -56 67 40 145 102 84 192 202 204 268 l6
34 -33 -29 c-24 -20 -32 -34 -29 -50 3 -17 0 -23 -13 -23 -9 0 -19 -9 -22 -20
-3 -11 -9 -20 -12 -20 -4 0 -22 -19 -39 -43 -79 -111 -142 -147 -252 -144 -75
1 -157 -15 -196 -40 -15 -9 -29 -10 -55 -3 -49 14 -79 31 -79 46 0 23 195 143
300 184 19 8 67 35 105 61 39 25 80 49 92 53 13 4 30 17 40 29 28 34 91 78 97
68 9 -15 -4 -40 -25 -46 -10 -4 -19 -13 -19 -21 0 -8 -4 -14 -8 -14 -8 0 -52
-84 -52 -100 0 -5 13 -1 30 8 16 9 30 23 30 30 0 7 18 19 39 28 39 16 51 30
56 71 2 12 6 35 10 51 3 18 2 33 -4 37 -6 3 -21 27 -32 53 -21 45 -21 48 -5
113 19 81 20 162 2 248 -8 35 -12 70 -9 77 3 8 22 18 42 24 41 11 80 48 105
99 20 43 20 44 -5 36 -23 -8 -23 -6 -4 65 16 61 17 118 1 164 -20 59 -10 76
44 76 26 0 40 -5 44 -17 10 -24 26 -4 37 45 9 43 -1 90 -24 104 -7 4 -27 8
-46 8 -27 0 -42 -8 -70 -38 -51 -54 -99 -129 -112 -174 -11 -42 -29 -51 -29
-15 0 22 30 121 58 189 8 21 32 53 53 73 25 23 42 50 49 78 6 23 15 55 20 71
18 52 11 145 -16 234 l-26 85 26 111 c14 61 26 122 26 135 0 28 -38 93 -52 89
-5 -2 -10 -40 -11 -84 -1 -46 -7 -86 -14 -94 -7 -8 -23 -28 -37 -45 l-24 -29
-79 52 c-123 81 -343 169 -483 194 -112 20 -631 17 -724 -4 -89 -21 -98 -17
-90 36 4 22 10 48 14 56 5 8 6 38 4 65 -2 28 -4 61 -5 74 -1 16 -4 20 -9 11
-6 -10 -8 -10 -12 1 -4 11 -11 10 -39 -1 -19 -8 -36 -17 -39 -21 -3 -3 -15 -9
-27 -13 -18 -6 -23 -3 -23 11 0 23 58 70 109 87 47 17 121 55 121 62 0 3 -4 3
-9 0 -17 -11 -61 14 -71 40 -12 31 -34 27 -38 -8 -4 -32 -49 -78 -56 -57 -53
168 -59 235 -23 248 12 5 29 5 39 0 24 -13 25 -12 38 25 11 35 31 46 81 46 20
0 28 6 33 24 6 24 48 46 90 46 12 0 26 8 33 18 10 18 94 63 138 76 27 8 91 -8
110 -28 9 -9 22 -16 28 -17 7 -1 32 -2 57 -3 91 -5 176 -19 199 -34 23 -14 26
-13 54 18 26 29 81 48 89 31 2 -3 28 -14 58 -25 30 -10 65 -28 78 -39 16 -15
33 -21 57 -18 24 2 41 -4 57 -19 12 -11 32 -23 44 -26 11 -3 28 -18 38 -34 14
-25 21 -28 46 -23 34 6 60 -10 60 -38 0 -22 4 -23 32 -8 56 30 114 -43 103
-129 -11 -80 -24 -106 -75 -157 -40 -40 -47 -52 -39 -67 12 -23 49 -24 49 -1
0 9 11 31 25 49 14 18 25 35 25 39 0 14 49 57 58 51 20 -12 25 -66 8 -85 -9
-10 -16 -22 -16 -28 0 -13 -43 -53 -58 -53 -21 0 -13 -30 18 -63 36 -38 85
-129 95 -174 l7 -33 131 0 c127 0 207 12 207 29 0 5 -27 9 -61 9 -72 0 -86 7
-30 17 23 4 41 10 41 14 0 4 18 14 40 21 22 7 45 19 51 27 6 7 17 13 25 13 7
0 19 10 25 23 7 12 15 24 19 27 12 8 41 108 49 165 6 43 5 55 -6 55 -20 0 -16
36 13 91 14 28 24 59 22 70 -3 16 -8 14 -43 -19 -63 -58 -80 -65 -101 -41 -9
10 -23 19 -30 19 -7 0 -19 8 -26 18 -16 23 -63 54 -70 47 -3 -3 -17 8 -31 25
-20 23 -34 30 -61 30 -20 0 -36 4 -36 9 0 10 -88 36 -96 29 -3 -3 -6 -15 -7
-25 -1 -17 -10 -11 -49 29 -52 54 -57 65 -31 75 27 11 98 71 91 78 -3 3 -40
-6 -84 -20 -43 -14 -92 -25 -108 -25 -99 0 -263 55 -316 105 -14 13 -46 33
-72 45 -51 22 -53 27 -38 80 5 19 7 49 4 67 l-6 33 -22 -27 c-11 -15 -28 -48
-36 -72 -10 -30 -24 -50 -40 -57 -47 -23 -134 -37 -224 -37 -81 0 -97 3 -145
29 -29 16 -61 40 -69 54 -14 22 -41 50 -84 86 -7 7 -28 29 -47 50 -41 47 -60
60 -62 42z m1361 -594 c0 -8 -4 -12 -10 -9 -5 3 -10 10 -10 16 0 5 5 9 10 9 6
0 10 -7 10 -16z m-798 -549 c79 -18 220 -69 263 -95 46 -29 80 -62 93 -92 10
-24 9 -26 -6 -21 -9 4 -39 21 -67 39 -64 42 -128 57 -194 44 -104 -20 -190
-82 -243 -178 -41 -73 -48 -124 -22 -153 15 -17 15 -21 -5 -55 -38 -63 -71
-155 -92 -254 -12 -52 -27 -114 -35 -137 -13 -38 -13 -46 2 -75 42 -81 37
-100 -26 -113 -19 -4 -45 -13 -57 -21 -12 -8 -44 -14 -70 -14 -39 0 -54 5 -79
29 -30 28 -33 29 -55 13 -14 -9 -24 -12 -26 -5 -2 5 -9 17 -16 26 -11 14 -19
9 -71 -39 -58 -54 -59 -54 -110 -48 -59 6 -135 32 -154 51 -11 11 -47 18 -73
15 -12 -2 -15 33 -7 75 7 35 17 47 56 73 39 26 53 30 86 25 l38 -6 -7 38 c-6
32 -5 35 9 24 26 -21 39 -2 17 25 -46 59 -32 123 38 170 33 21 43 24 61 14 12
-6 51 -19 87 -29 81 -20 104 -45 105 -118 2 -57 -22 -99 -69 -123 -15 -8 -41
-25 -56 -37 l-28 -23 26 -10 c14 -5 31 -10 36 -10 5 0 9 -6 9 -14 0 -18 108
81 126 115 21 42 54 175 54 221 0 24 -12 78 -26 121 -25 74 -25 79 -10 112 16
32 15 39 -4 115 -28 117 -56 152 -168 216 -35 20 -60 40 -55 44 4 4 36 17 70
28 199 68 451 82 655 37z m114 -477 c3 -4 -13 -8 -35 -8 -23 0 -41 4 -41 10 0
11 69 10 76 -2z m-769 -88 c31 -19 59 -57 49 -67 -2 -3 -20 0 -39 6 -23 8 -57
9 -106 3 -80 -9 -92 -6 -81 24 19 49 120 69 177 34z m793 -60 c37 -19 68 -55
56 -67 -2 -3 -26 3 -51 13 -46 17 -94 14 -183 -12 -20 -6 -21 -4 -14 17 13 36
68 69 114 69 21 0 56 -9 78 -20z m-116 -89 c3 -5 -1 -15 -10 -22 -9 -7 -20
-24 -25 -37 -11 -29 0 -104 13 -96 6 4 13 2 17 -3 9 -15 55 -28 47 -14 -9 14
44 62 62 56 8 -3 12 10 12 45 0 28 4 50 9 50 5 0 23 -13 40 -29 23 -21 31 -38
31 -63 0 -48 20 -86 53 -98 15 -5 41 -15 58 -22 22 -8 37 -24 50 -52 25 -56
24 -80 -6 -96 -14 -7 -32 -24 -41 -38 -31 -48 -187 -96 -278 -86 -22 3 -53 12
-70 21 -17 9 -37 19 -44 22 -25 12 -87 144 -78 167 5 14 19 16 94 10 88 -6
139 4 97 20 -47 18 -129 75 -146 101 -22 32 -25 91 -6 116 29 41 107 71 121
48z m-204 -361 c0 -5 -4 -10 -10 -10 -5 0 -10 5 -10 10 0 6 5 10 10 10 6 0 10
-4 10 -10z m577 -242 c-3 -7 -5 -2 -5 12 0 14 2 19 5 13 2 -7 2 -19 0 -25z
m-758 -164 c78 -5 99 -9 85 -17 -29 -16 -206 -15 -237 2 -39 21 -33 34 11 27
20 -3 84 -9 141 -12z m-227 -41 c29 -16 48 -32 46 -41 -2 -8 -28 -24 -58 -34
-71 -25 -96 -27 -91 -8 2 8 3 26 3 40 0 21 32 70 46 70 2 0 26 -12 54 -27z
m490 -25 c29 -14 47 -30 48 -41 0 -21 -56 -57 -90 -57 -24 0 -110 39 -110 50
0 5 91 69 100 70 3 0 26 -10 52 -22z"/>
<path d="M4788 7788 c-3 -7 -15 -13 -28 -13 -16 0 -30 -10 -40 -27 -19 -35 -8
-55 44 -83 l37 -20 30 33 c30 33 37 69 19 103 -12 21 -56 26 -62 7z"/>
<path d="M5323 9531 c-51 -7 -91 -37 -74 -54 7 -7 50 -14 97 -16 74 -3 87 -1
99 15 13 17 16 17 25 4 5 -8 10 -10 10 -4 0 20 -25 42 -55 47 -16 3 -37 7 -45
10 -8 2 -34 1 -57 -2z"/>
<path d="M4777 9443 c-11 -10 -8 -20 8 -27 10 -4 15 1 15 14 0 20 -11 26 -23
13z"/>
<path d="M4928 9393 c7 -3 16 -2 19 1 4 3 -2 6 -13 5 -11 0 -14 -3 -6 -6z"/>
<path d="M4976 8951 c-4 -5 -2 -12 3 -15 5 -4 12 -2 15 3 4 5 2 12 -3 15 -5 4
-12 2 -15 -3z"/>
<path d="M5600 8935 c0 -8 5 -15 10 -15 6 0 10 7 10 15 0 8 -4 15 -10 15 -5 0
-10 -7 -10 -15z"/>
<path d="M4850 8925 c-17 -20 -8 -27 24 -19 29 7 34 19 10 28 -21 8 -20 8 -34
-9z"/>
<path d="M5756 8905 c-3 -9 0 -15 9 -15 8 0 15 7 15 15 0 8 -4 15 -9 15 -5 0
-11 -7 -15 -15z"/>
<path d="M2528 7940 c9 -16 20 -30 25 -30 4 0 7 -5 7 -11 0 -5 13 -24 30 -42
16 -18 30 -40 30 -49 0 -9 9 -19 19 -23 13 -4 22 -19 26 -45 9 -51 -1 -94 -31
-147 -21 -37 -25 -58 -28 -151 -2 -60 -8 -118 -15 -130 -23 -43 -36 -19 -42
76 -6 95 -19 124 -59 135 -24 6 -36 -8 -44 -55 -4 -20 -12 -38 -19 -41 -9 -3
-7 -14 7 -43 10 -21 21 -65 24 -98 5 -53 3 -58 -14 -54 -16 3 -19 13 -19 68
-1 87 -1 85 -37 108 -33 21 -68 16 -68 -11 0 -7 -7 -21 -15 -31 -14 -19 -16
-19 -34 -2 -29 27 -64 17 -77 -22 -5 -17 -15 -37 -21 -43 -13 -13 -14 -10 -31
102 -6 42 -19 81 -35 104 l-26 38 -7 -27 c-20 -82 45 -270 124 -360 40 -45 92
-150 92 -186 0 -14 4 -41 10 -60 13 -46 31 -159 39 -240 l6 -65 85 0 c92 0
142 17 148 48 3 16 -13 35 -65 78 -19 14 -16 145 3 232 21 89 43 141 87 203
46 65 68 111 108 224 30 85 33 106 34 205 0 99 -3 117 -29 183 -43 107 -127
192 -190 192 -13 0 -13 -4 2 -30z m-195 -700 c9 -36 -2 -56 -27 -47 -10 4 -16
19 -16 40 0 58 28 63 43 7z"/>
<path d="M2561 7784 c-12 -15 -21 -32 -21 -40 0 -7 -3 -19 -6 -28 -5 -13 -2
-13 21 -3 16 7 28 23 32 40 3 15 10 30 14 33 14 8 10 24 -5 24 -8 0 -24 -12
-35 -26z"/>
<path d="M7445 7483 c-43 -9 -67 -29 -90 -74 -52 -105 -162 -219 -211 -219 -8
0 -20 11 -26 25 -6 14 -15 25 -20 25 -15 0 -72 -90 -92 -143 -12 -35 -20 -91
-23 -167 -5 -102 -2 -126 21 -215 25 -92 70 -190 120 -257 25 -35 15 -46 -19
-24 -15 10 -33 15 -41 12 -19 -7 -18 -63 1 -100 8 -15 15 -36 15 -45 0 -9 14
-35 30 -59 16 -24 34 -67 40 -97 8 -39 18 -58 36 -70 14 -9 85 -28 157 -41
104 -20 157 -25 249 -22 137 4 153 11 124 61 -10 18 -48 90 -84 160 -36 71
-70 131 -76 133 -7 3 -42 -2 -79 -9 -89 -19 -88 -20 -133 178 -24 103 -14 304
21 460 31 137 71 263 90 285 36 41 114 171 109 184 -8 21 -68 31 -119 19z
m-140 -1282 c8 -14 -30 -32 -49 -25 -30 11 -16 34 20 34 13 0 25 -4 29 -9z"/>
<path d="M9177 6964 c-8 -8 3 -34 14 -34 11 0 12 27 0 34 -4 3 -11 3 -14 0z"/>
<path d="M2222 6689 c-58 -25 -54 -49 11 -67 27 -7 55 -11 63 -8 27 10 10 97
-19 95 -7 0 -31 -9 -55 -20z"/>
<path d="M2578 6594 c-13 -13 -176 -64 -204 -64 -17 0 -64 8 -105 19 -140 35
-129 34 -129 7 0 -34 32 -112 69 -171 17 -26 44 -82 62 -123 34 -83 62 -115
96 -107 12 3 25 1 28 -5 8 -13 57 44 82 95 34 67 111 268 118 306 6 33 -4 57
-17 43z"/>
<path d="M1675 6191 c-44 -11 -60 -21 -93 -64 -32 -40 -37 -55 -47 -149 -5
-41 -2 -64 9 -85 20 -39 82 -96 141 -131 44 -25 50 -32 47 -59 l-3 -30 88 -16
c164 -31 218 -37 382 -46 238 -13 554 10 771 55 103 21 240 70 266 95 34 32
67 130 58 171 -4 18 -9 28 -11 22 -5 -16 -42 -5 -67 20 -30 30 -46 64 -46 97
0 41 -24 93 -51 113 -22 15 -24 15 -30 -1 -10 -26 -49 -58 -89 -73 -19 -8 -37
-17 -40 -21 -3 -3 -19 -9 -35 -13 -29 -6 -32 -4 -53 38 -25 53 -27 52 -114 -6
l-56 -39 -134 3 c-74 1 -140 -2 -146 -6 -7 -4 -10 -16 -7 -26 8 -26 -36 -74
-71 -76 -16 -1 -35 -2 -41 -3 -7 0 -13 -12 -13 -24 0 -13 -8 -31 -18 -40 -24
-22 -100 -23 -108 -2 -9 23 23 65 62 81 20 8 34 21 34 32 0 9 3 27 6 39 6 21
3 21 -113 25 -109 3 -121 5 -156 30 -32 23 -42 25 -67 17 -36 -13 -88 9 -124
52 -26 31 -63 36 -131 20z m98 -82 c34 -37 37 -74 5 -66 -20 4 -146 48 -157
54 -10 6 25 34 53 42 42 12 66 5 99 -30z m1285 -51 c-2 -15 -19 -31 -47 -47
-54 -30 -166 -38 -256 -19 -51 11 -60 16 -63 37 -7 44 36 51 147 25 63 -15 68
-15 106 5 22 11 57 20 78 21 34 0 38 -3 35 -22z m-999 -39 c17 -17 31 -39 31
-50 0 -22 -6 -23 -40 -4 -14 8 -46 14 -71 15 -60 0 -79 20 -50 49 33 33 92 28
130 -10z m597 -53 c17 -13 17 -16 4 -29 -16 -15 -191 -67 -225 -67 -26 0 -13
12 76 65 78 47 113 54 145 31z"/>
<path d="M4132 6100 c0 -14 2 -19 5 -12 2 6 2 18 0 25 -3 6 -5 1 -5 -13z"/>
<path d="M4138 6064 c-3 -5 -2 -20 2 -34 4 -18 8 -21 12 -10 6 17 -6 58 -14
44z"/>
<path d="M4412 5590 c-142 -87 -42 -278 113 -216 24 10 45 27 53 43 17 37 15
98 -3 113 -8 7 -15 19 -15 26 0 19 -59 54 -90 54 -14 0 -40 -9 -58 -20z m61
-24 c7 -19 -17 -51 -31 -42 -13 8 -16 39 -5 49 11 12 31 8 36 -7z"/>
<path d="M4357 5182 c-22 -24 -21 -39 1 -46 41 -12 135 -25 143 -20 16 10 9
34 -16 59 -31 32 -103 35 -128 7z"/>
<path d="M4340 5070 c0 -5 5 -10 10 -10 6 0 10 5 10 10 0 6 -4 10 -10 10 -5 0
-10 -4 -10 -10z"/>
<path d="M6210 4913 c0 -12 5 -25 10 -28 13 -8 13 15 0 35 -8 12 -10 11 -10
-7z"/>
<path d="M3369 2970 c-79 -10 -161 -51 -218 -108 -39 -39 -54 -64 -70 -117
-12 -37 -21 -84 -21 -105 0 -44 2 -45 98 -55 l62 -7 0 29 c0 42 27 124 49 151
28 33 106 65 140 57 73 -16 108 -123 81 -243 -15 -62 -78 -191 -214 -437 -82
-148 -88 -163 -81 -204 3 -22 12 -41 18 -44 7 -2 147 26 312 63 l300 67 0 104
c0 100 -1 104 -22 107 -17 2 -26 -4 -35 -23 -18 -40 -69 -65 -196 -96 -64 -16
-120 -29 -124 -29 -18 0 -4 32 65 155 130 233 167 332 167 446 0 87 -22 156
-66 208 -59 68 -139 95 -245 81z"/>
<path d="M4055 2919 c-143 -32 -268 -59 -278 -59 -10 0 -20 -6 -23 -14 -7 -18
35 -196 46 -196 31 0 60 22 60 45 0 41 30 60 132 84 145 33 168 36 168 20 0
-8 -61 -167 -135 -353 -74 -186 -135 -348 -135 -360 0 -47 11 -50 111 -27 112
25 365 83 467 106 l72 17 -1 42 c-1 22 -6 70 -13 106 -11 63 -12 65 -41 65
-26 0 -30 -4 -37 -41 -14 -66 -31 -77 -182 -113 -76 -18 -140 -31 -143 -28 -5
5 28 94 188 503 62 162 76 207 70 230 -6 23 -13 29 -37 31 -16 0 -146 -25
-289 -58z"/>
<path d="M5987 2803 c-15 -15 -7 -43 13 -43 24 0 25 -12 9 -131 -13 -96 -20
-114 -46 -114 -11 0 -19 -8 -21 -21 -3 -24 9 -29 101 -40 54 -6 57 -6 57 16 0
14 -8 24 -21 27 -19 5 -20 11 -15 47 9 50 10 52 44 40 21 -7 32 -22 47 -67 24
-67 40 -85 80 -89 22 -2 30 2 33 15 2 10 -3 24 -12 30 -15 11 -66 104 -66 120
0 4 7 7 15 7 25 0 65 47 65 75 0 38 -25 79 -57 94 -15 7 -66 19 -113 27 -98
16 -104 16 -113 7z m191 -79 c23 -16 28 -48 12 -74 -10 -17 -84 -20 -99 -5 -5
6 -7 29 -4 53 5 39 8 42 37 42 17 0 42 -7 54 -16z"/>
<path d="M7157 2683 c-4 -3 -7 -19 -7 -35 0 -24 4 -28 30 -28 23 0 31 5 36 24
3 14 3 30 -1 35 -7 12 -48 15 -58 4z"/>
<path d="M6393 2656 c-18 -8 -42 -30 -53 -48 -45 -75 -35 -145 30 -191 36 -26
46 -28 117 -25 72 3 78 5 81 26 3 21 0 22 -58 22 -82 0 -137 29 -123 66 3 7
31 6 94 -4 49 -7 96 -11 104 -8 38 14 -2 132 -53 155 -42 20 -105 22 -139 7z
m115 -62 c22 -15 29 -39 15 -47 -15 -9 -123 15 -123 27 0 36 67 49 108 20z"/>
<path d="M2800 2638 c-25 -5 -51 -15 -57 -21 -7 -7 -17 -48 -23 -92 -6 -44
-24 -179 -40 -300 -54 -396 -49 -378 -98 -396 -21 -8 -24 -14 -18 -41 3 -18
10 -36 14 -40 7 -6 248 45 259 56 3 3 2 21 -1 41 -5 26 -12 36 -24 34 -49 -4
-52 -1 -52 54 0 95 -2 92 133 125 67 16 127 27 132 25 16 -6 75 -98 75 -117 0
-11 -12 -22 -30 -29 -30 -12 -35 -23 -23 -65 5 -21 10 -23 40 -17 79 15 80 16
69 84 -9 57 -8 63 22 121 27 51 30 64 21 83 -34 64 -334 507 -343 506 -6 -1
-31 -6 -56 -11z m138 -396 c19 -29 31 -57 26 -61 -11 -10 -174 -44 -180 -38
-6 6 24 256 32 269 3 5 24 -19 46 -54 23 -35 57 -87 76 -116z"/>
<path d="M6740 2603 c-138 -72 -83 -263 76 -263 51 0 114 16 114 29 0 4 -6 15
-12 24 -11 14 -20 14 -60 5 -62 -15 -105 2 -116 46 -17 62 15 116 68 116 34 0
58 -19 62 -50 2 -19 10 -26 30 -28 22 -3 30 2 38 23 5 14 10 42 10 61 0 31 -2
34 -30 34 -16 0 -30 -5 -30 -12 0 -6 -8 -4 -19 6 -29 26 -90 30 -131 9z"/>
<path d="M7052 2549 c2 -19 10 -25 37 -27 l34 -3 -7 -77 c-4 -42 -9 -80 -12
-84 -3 -5 -28 -5 -56 -2 -48 7 -50 6 -46 -17 3 -22 11 -25 98 -41 52 -9 112
-17 133 -17 34 -1 38 1 35 22 -2 18 -11 23 -45 28 -24 3 -45 7 -47 10 -2 2 3
50 11 107 8 57 13 105 12 107 -2 1 -37 6 -77 10 -73 7 -74 7 -70 -16z"/>
<path d="M7334 2515 c-7 -18 3 -35 22 -35 17 0 17 2 -2 -128 -22 -157 -21
-152 -49 -152 -19 0 -25 -5 -25 -23 0 -22 6 -25 78 -35 102 -16 102 -16 102
13 0 20 -5 25 -24 25 -32 0 -38 11 -30 59 l6 40 30 -22 c36 -27 94 -28 132 -3
30 19 65 87 66 125 0 41 -38 108 -69 121 -37 15 -89 16 -103 2 -16 -16 -38
-15 -38 2 0 27 -86 38 -96 11z m204 -71 c18 -12 22 -25 22 -65 0 -73 -39 -106
-93 -78 -31 17 -37 28 -37 73 0 70 56 107 108 70z"/>
<path d="M7764 2456 c-42 -19 -76 -69 -82 -122 -9 -87 60 -146 174 -146 70 0
84 5 84 33 0 17 -7 19 -60 19 -72 0 -120 21 -120 52 0 23 -13 22 158 2 l52 -7
0 33 c0 19 -9 53 -20 76 -32 65 -114 91 -186 60z m121 -66 c32 -36 14 -48 -54
-37 -34 5 -61 15 -61 21 0 39 84 50 115 16z"/>
<path d="M8117 2233 c-3 -5 -8 -27 -11 -49 -7 -37 -5 -42 16 -48 44 -11 65 -7
72 17 12 46 7 67 -20 77 -30 12 -51 13 -57 3z"/>
<path d="M9490 1499 c0 -5 5 -7 10 -4 6 3 10 8 10 11 0 2 -4 4 -10 4 -5 0 -10
-5 -10 -11z"/>
<path d="M9520 1499 c0 -5 5 -7 10 -4 6 3 10 8 10 11 0 2 -4 4 -10 4 -5 0 -10
-5 -10 -11z"/>
<path d="M9402 1260 c0 -14 2 -19 5 -12 2 6 2 18 0 25 -3 6 -5 1 -5 -13z"/>
<path d="M10780 1200 c0 -22 5 -40 10 -40 6 0 10 18 10 40 0 22 -4 40 -10 40
-5 0 -10 -18 -10 -40z"/>
<path d="M80 860 c0 -17 -7 -20 -40 -20 l-40 0 0 -420 0 -420 495 0 c488 0
495 0 495 20 0 11 -7 20 -15 20 -11 0 -15 11 -15 40 l0 40 -56 0 c-40 0 -54 3
-51 13 2 8 20 11 55 9 47 -4 52 -2 52 17 0 18 -6 21 -40 21 -38 0 -40 2 -40
30 0 28 -2 30 -40 30 -33 0 -40 -3 -40 -20 0 -12 7 -20 16 -20 17 0 14 -22 -4
-28 -7 -2 -12 4 -12 12 0 9 -16 24 -35 33 -19 9 -35 20 -35 23 0 4 15 14 33
23 l32 16 -37 0 c-37 1 -38 2 -38 41 l0 40 -40 0 -40 0 0 40 c0 38 -2 40 -30
40 -28 0 -30 2 -30 40 l0 40 -130 0 c-109 0 -130 -2 -130 -15 0 -11 11 -15 40
-15 22 0 40 -4 40 -10 0 -5 -18 -10 -40 -10 -29 0 -40 -4 -40 -15 0 -8 -7 -15
-16 -15 -14 0 -16 9 -12 50 4 41 2 53 -17 70 -29 27 -35 25 -35 -10 0 -21 -5
-30 -16 -30 -14 0 -15 10 -9 78 4 42 11 78 16 80 5 2 9 21 9 42 0 22 5 40 13
43 7 2 8 8 3 13 -5 5 -11 4 -13 -3 -3 -8 -22 -13 -44 -13 -39 0 -39 0 -39 -40
l0 -40 -40 0 -40 0 0 40 c0 38 2 40 30 40 28 0 30 2 30 40 0 22 5 40 10 40 6
0 10 9 10 20 0 17 -7 20 -40 20 -33 0 -40 -3 -40 -20z m400 -460 c0 -29 -4
-40 -15 -40 -11 0 -15 11 -15 40 0 29 4 40 15 40 11 0 15 -11 15 -40z"/>
<path d="M9618 763 c12 -2 32 -2 45 0 12 2 2 4 -23 4 -25 0 -35 -2 -22 -4z"/>
<path d="M240 640 l0 -40 40 0 40 0 0 40 0 40 -40 0 -40 0 0 -40z"/>
<path d="M1525 580 c-3 -6 1 -13 10 -16 19 -8 30 0 20 15 -8 14 -22 14 -30 1z"/>
<path d="M1040 82 c0 -31 -4 -42 -15 -42 -8 0 -15 -9 -15 -20 0 -18 7 -20 55
-20 47 0 55 3 55 18 0 10 -18 38 -40 62 l-40 43 0 -41z"/>
<path d="M1120 80 c0 -22 5 -40 10 -40 6 0 10 -9 10 -20 0 -13 7 -20 20 -20
13 0 20 7 20 20 0 13 -7 20 -20 20 -17 0 -20 7 -20 40 0 22 -4 40 -10 40 -5 0
-10 -18 -10 -40z"/>
<path d="M9120 110 c0 -5 5 -10 10 -10 6 0 10 5 10 10 0 6 -4 10 -10 10 -5 0
-10 -4 -10 -10z"/>
</g>
</svg>
